# xmcd
#
# Track frame offsets:
#	150
#	22606
#	46120
#	65548
#	85818
#	106453
#	127406
#	150371
#	172065
#	191085
#	211947
#	234641
#	256070
#	277341
#	294727
#	314157
#
# Disc length: 4410
#
# Revision: 1
# Processed by: cddbd v1.5.1PL0 Copyright (c) Steve Scherf et al.
# Submitted via: CDex 1.50Beta7
# Normalized: r0:TDELIM( - )
#
DISCID=ed113810
DTITLE=Various Artist - My kind of Jazz Vol 2
DYEAR=2002
DGENRE=Jazz
TTITLE0=Special EFX - Mercy Mercy Me
TTITLE1=Gerald Albright - Anniversary
TTITLE2=Jeff Kashiwa - Hyde Park (the "ah, oooh" song)
TTITLE3=Jeff Owens - Tinseltown
TTITLE4=Oleta Adams - Get Here
TTITLE5=US3 - Cantaloop (Flip Fantasia)
TTITLE6=Ernie Smith - Crazy
TTITLE7=Keiko Matsui - Sapphire
TTITLE8=Al Jarreau - Boogie Down
TTITLE9=Hiroko Kokubu - Bridge over Troubled Water
TTITLE10=Allou April - A Place Called Love
TTITLE11=Peter White - Perfect Moment
TTITLE12=Najee - Sweet Love
TTITLE13=Wessel - So Fine
TTITLE14=Duncan Miller - Captain of her Heart
TTITLE15=Jonathan Crossley - Lubombo
EXTD=YEAR: 2002
EXTT0=
EXTT1=
EXTT2=
EXTT3=
EXTT4=
EXTT5=
EXTT6=
EXTT7=
EXTT8=
EXTT9=
EXTT10=
EXTT11=
EXTT12=
EXTT13=
EXTT14=
EXTT15=
PLAYORDER=
